<svg width="41" height="38" viewBox="0 0 41 38" fill="none" xmlns="http://www.w3.org/2000/svg">
<path id="Arrow 1" d="M3 16.5C1.61929 16.5 0.5 17.6193 0.5 19C0.5 20.3807 1.61929 21.5 3 21.5L3 16.5ZM39.7678 20.7678C40.7441 19.7915 40.7441 18.2085 39.7678 17.2322L23.8579 1.32233C22.8816 0.34602 21.2986 0.34602 20.3223 1.32233C19.346 2.29864 19.346 3.88155 20.3223 4.85786L34.4645 19L20.3223 33.1421C19.346 34.1184 19.346 35.7014 20.3223 36.6777C21.2986 37.654 22.8816 37.654 23.8579 36.6777L39.7678 20.7678ZM3 21.5L38 21.5V16.5L3 16.5L3 21.5Z" fill="black"/>
</svg>
