<svg width="20" height="20" viewBox="0 0 20 20" fill="none" xmlns="http://www.w3.org/2000/svg">
<path id="Vector" d="M3.56661 1.28276L9.99995 7.7161L16.3999 1.3161C16.5413 1.16563 16.7116 1.04525 16.9006 0.962201C17.0897 0.879147 17.2935 0.835121 17.4999 0.832764C17.942 0.832764 18.3659 1.00836 18.6785 1.32092C18.991 1.63348 19.1666 2.0574 19.1666 2.49943C19.1705 2.70377 19.1326 2.90674 19.0552 3.0959C18.9778 3.28506 18.8626 3.45641 18.7166 3.59943L12.2333 9.99943L18.7166 16.4828C18.9913 16.7515 19.1524 17.1154 19.1666 17.4994C19.1666 17.9415 18.991 18.3654 18.6785 18.6779C18.3659 18.9905 17.942 19.1661 17.4999 19.1661C17.2875 19.1749 17.0756 19.1395 16.8776 19.062C16.6797 18.9845 16.5 18.8667 16.3499 18.7161L9.99995 12.2828L3.58328 18.6994C3.44246 18.8449 3.27422 18.961 3.08828 19.0411C2.90235 19.1212 2.70239 19.1637 2.49995 19.1661C2.05792 19.1661 1.63399 18.9905 1.32143 18.6779C1.00887 18.3654 0.833279 17.9415 0.833279 17.4994C0.829393 17.2951 0.867305 17.0921 0.944687 16.903C1.02207 16.7138 1.13729 16.5425 1.28328 16.3994L7.76661 9.99943L1.28328 3.5161C1.00859 3.24736 0.847512 2.88345 0.833279 2.49943C0.833279 2.0574 1.00887 1.63348 1.32143 1.32092C1.63399 1.00836 2.05792 0.832764 2.49995 0.832764C2.89995 0.837764 3.28328 0.99943 3.56661 1.28276Z" fill="black"/>
</svg>
