<svg width="45" height="45" viewBox="0 0 45 45" fill="none" xmlns="http://www.w3.org/2000/svg">
<g id="ooui:message" clip-path="url(#clip0_120_2986)">
<path id="Vector" d="M0.117188 17.7502L0.117188 35.2621C0.117188 36.4232 0.582975 37.5367 1.41208 38.3577C2.24119 39.1788 3.3657 39.64 4.53824 39.64H39.9066C41.0792 39.64 42.2037 39.1788 43.0328 38.3577C43.8619 37.5367 44.3277 36.4232 44.3277 35.2621V17.7502L22.2224 26.5062L0.117188 17.7502Z" fill="white"/>
<path id="Vector_2" d="M4.53824 4.61646C3.3657 4.61646 2.24119 5.0777 1.41208 5.89873C0.582975 6.71975 0.117188 7.8333 0.117188 8.99441L0.117188 13.3724L22.2224 22.1283L44.3277 13.3724V8.99441C44.3277 7.8333 43.8619 6.71975 43.0328 5.89873C42.2037 5.0777 41.0792 4.61646 39.9066 4.61646H4.53824Z" fill="white"/>
</g>
<defs>
<clipPath id="clip0_120_2986">
<rect width="44.2105" height="43.7795" fill="white" transform="translate(0.117188 0.238525)"/>
</clipPath>
</defs>
</svg>
